# xmcd
#
# Track frame offsets:
#	150
#	18945
#	31827
#	45639
#	58560
#	70992
#	85941
#	104043
#	129387
#	145349
#	161007
#	190152
#
# Disc length: 2719 seconds
#
# Revision: 1
# Processed by: cddbd v1.5.2PL0 Copyright (c) Steve Scherf et al.
# Submitted via: audiograbber 1.83.01
#
DISCID=a20a9d0c
DTITLE=E Matike - Island Magic
DYEAR=2010
DGENRE=Folklore
TTITLE0=Parataito
TTITLE1=Rarotonga
TTITLE2=Kukupa
TTITLE3=Oki mai
TTITLE4=Kia Orana
TTITLE5=Aere Puaikura
TTITLE6=Tau Mano
TTITLE7=Orooroamoa
TTITLE8=Inangaro
TTITLE9=Maine
TTITLE10=Pacific Medley
TTITLE11=Vaine Matike
EXTD=
EXTT0=
EXTT1=
EXTT2=
EXTT3=
EXTT4=
EXTT5=
EXTT6=
EXTT7=
EXTT8=
EXTT9=
EXTT10=
EXTT11=
PLAYORDER=
